<?xml version="1.0" encoding="UTF-8" standalone="no"?>
<!-- Created with Inkscape (http://www.inkscape.org/) -->

<svg
   xmlns:dc="http://purl.org/dc/elements/1.1/"
   xmlns:cc="http://creativecommons.org/ns#"
   xmlns:rdf="http://www.w3.org/1999/02/22-rdf-syntax-ns#"
   xmlns:svg="http://www.w3.org/2000/svg"
   xmlns="http://www.w3.org/2000/svg"
   xmlns:sodipodi="http://sodipodi.sourceforge.net/DTD/sodipodi-0.dtd"
   xmlns:inkscape="http://www.inkscape.org/namespaces/inkscape"
   width="174.91464mm"
   height="156.1797mm"
   viewBox="0 0 174.91464 156.1797"
   version="1.1"
   id="svg8"
   inkscape:version="0.92.4 (5da689c313, 2019-01-14)"
   sodipodi:docname="fist_right.svg">
  <defs
     id="defs2" />
  <sodipodi:namedview
     id="base"
     pagecolor="#ffffff"
     bordercolor="#666666"
     borderopacity="1.0"
     inkscape:pageopacity="0.0"
     inkscape:pageshadow="2"
     inkscape:zoom="0.35"
     inkscape:cx="-90.842257"
     inkscape:cy="276.95217"
     inkscape:document-units="mm"
     inkscape:current-layer="layer1"
     showgrid="false"
     inkscape:window-width="1920"
     inkscape:window-height="1137"
     inkscape:window-x="1912"
     inkscape:window-y="-4"
     inkscape:window-maximized="1"
     fit-margin-top="0"
     fit-margin-left="0"
     fit-margin-right="0"
     fit-margin-bottom="0" />
  <metadata
     id="metadata5">
    <rdf:RDF>
      <cc:Work
         rdf:about="">
        <dc:format>image/svg+xml</dc:format>
        <dc:type
           rdf:resource="http://purl.org/dc/dcmitype/StillImage" />
        <dc:title></dc:title>
      </cc:Work>
    </rdf:RDF>
  </metadata>
  <g
     inkscape:label="Layer 1"
     inkscape:groupmode="layer"
     id="layer1"
     transform="translate(-0.97879957,-5.4543642)">
    <path
       style="fill:#00a800;fill-opacity:1;stroke-width:0.60146666"
       d="m 34.684725,158.12445 c -1.627403,-3.22042 -1.938437,-3.50967 -3.773889,-3.50967 -1.100159,0 -2.389247,-0.1411 -2.86462,-0.3137 -0.503232,-0.18263 -2.566447,1.16145 -4.938447,3.21719 -2.240778,1.94198 -4.28406,3.53089 -4.540627,3.53089 -0.256581,0 -2.003315,-1.11871 -3.881608,-2.48602 -3.594251,-2.6164 -12.4698214,-13.37987 -12.4698214,-15.1222 0,-0.54681 1.669837,-2.3624 3.710738,-4.03467 l 3.710739,-3.04046 v -3.67114 c 0,-6.19606 -0.332652,-6.90542 -4.702409,-10.0273 -2.175798,-1.55444 -3.95598103,-3.13432 -3.95598103,-3.51082 0,-0.37652 2.39990303,-3.47624 5.33311803,-6.88829 5.0231274,-5.84313 6.9354624,-7.19237 7.9637024,-5.61877 0.677281,1.03646 1.899473,0.62653 3.238241,-1.08612 1.02095,-1.30607 1.231192,-2.2004 0.962561,-4.0946 -0.189655,-1.33738 -0.681374,-2.423545 -1.097168,-2.423545 -0.414399,0 -1.501652,-1.66502 -2.416089,-3.70002 -1.491607,-3.31942 -1.644285,-4.29712 -1.484304,-9.50532 0.169418,-5.51584 0.247696,-5.81463 1.56984,-5.99223 2.014451,-0.2706 1.835437,-3.20736 -0.456006,-7.48113 -1.016147,-1.89524 -1.851072,-3.7749 -1.855385,-4.17704 -0.0044,-0.40215 -0.531002,-0.73119 -1.170437,-0.73119 -2.2297004,0 -9.3797454,-11.11289 -9.3395184,-14.51588 0.0072,-0.67023 1.692354,-1.68623 5.269895,-3.178624 2.8920444,-1.206458 5.6461864,-2.193547 6.1203254,-2.193547 1.360891,0 5.734335,5.618211 6.852872,8.803331 0.873804,2.4882 1.204729,2.85141 2.358456,2.58858 2.060893,-0.46951 6.683006,5.38152 8.525498,10.79226 l 1.450696,4.26019 -1.306073,0.96268 c -0.718351,0.52949 -1.810134,1.24508 -2.426195,1.5902 -1.066362,0.59739 -1.042873,0.83605 0.489455,4.97201 0.885272,2.38948 1.705259,4.85746 1.822226,5.48438 0.154088,0.82598 2.553018,-1.75134 8.711335,-9.35908 9.205014,-11.37153 8.652154,-10.19113 7.520074,-16.05592 -0.23795,-1.23268 0.51189,-2.12843 4.7742,-5.7032 5.11683,-4.29143 6.74297,-4.93498 8.55364,-3.38515 0.89535,0.76636 1.63971,0.31124 7.13247,-4.36092 6.09143,-5.1814 6.13173,-5.233531 5.97627,-7.728747 -0.14983,-2.4048 0.0293,-2.686082 4.19289,-6.581518 l 4.3494,-4.069356 2.28882,0.782791 c 2.14167,0.732469 2.36171,0.697682 3.4222,-0.541006 0.85471,-0.998314 1.06361,-1.98802 0.84962,-4.025234 l -0.28375,-2.70142 4.31523,-3.776268 c 4.12241,-3.607524 4.39718,-3.747036 6.14861,-3.121765 1.826091,0.651918 1.833361,0.645948 1.833361,-1.505112 0,-1.873659 0.51402,-2.641462 3.882,-5.7986118 2.1351,-2.001448 4.22193,-3.638994 4.63737,-3.638994 0.41546,0 2.97693,1.118708 5.69214,2.486014 l 4.93677,2.4859978 0.0116,4.876406 0.0116,4.876405 -3.85525,3.797295 c -3.34683,3.296479 -4.0809,3.754597 -5.56613,3.473647 -1.5882,-0.300431 -1.71082,-0.187316 -1.71082,1.578501 0,1.577952 -0.73731,2.594123 -4.32625,5.962564 l -4.32623,4.060452 -1.816211,-1.014711 c -1.76913,-0.988414 -1.84134,-0.98077 -2.78602,0.294845 -0.53339,0.720264 -0.98193,2.501319 -0.99673,3.957897 -0.0248,2.447513 -0.35045,2.98096 -4.2936,7.035176 l -4.26666,4.386842 -1.9386,-1.08308 c -2.25087,-1.25759 -1.76649,-1.54297 -9.72869,5.73174 -4.30173,3.93029 -4.48382,4.20707 -4.48382,6.81541 0,2.62628 -0.15998,2.86249 -4.70317,6.94422 -3.72558,3.34714 -5.00887,4.17016 -6.17393,3.95951 -1.30266,-0.23553 -2.82124,1.43664 -13.28675,14.63051 l -11.815983,14.896405 0.518489,2.54581 0.518504,2.54581 15.10309,-14.943695 15.10311,-14.94372 -0.14623,-3.38894 -0.14624,-3.38896 6.24646,-4.16461 c 3.43556,-2.29055 6.42775,-4.16463 6.64929,-4.16463 0.22155,0 1.01585,0.54471 1.76513,1.21047 l 1.36231,1.21048 7.58541,-5.15883 c 7.31158,-4.97261 7.62105,-5.2699 8.57287,-8.23502 0.92387,-2.87812 1.31487,-3.28293 6.073581,-6.288132 2.7974,-1.766579 5.46774,-3.211966 5.93411,-3.211966 0.46638,0 1.33332,0.507264 1.92657,1.127246 1.06071,1.108577 1.11749,1.101301 3.42531,-0.438701 1.72954,-1.154108 2.61023,-2.335159 3.34862,-4.490681 0.91391,-2.667925 1.43562,-3.194324 5.94227,-5.995661 5.28891,-3.287591 6.22242,-3.563401 7.42444,-2.19354 1.20274,1.370656 1.57052,1.101314 3.22825,-2.364126 1.36133,-2.845824 2.09656,-3.559904 6.02283,-5.849417 2.45972,-1.434344 4.93288,-2.604983 5.49591,-2.601417 1.54924,0.01 9.99132,7.49215 9.99132,8.855477 0,0.638421 -1.03561,2.816658 -2.30131,4.840507 -1.84857,2.955773 -3.16444,4.213927 -6.68849,6.395016 -4.56097,2.822875 -5.74188,3.17154 -6.93136,2.046499 -0.53051,-0.501759 -1.06199,0.02206 -2.128,2.097306 -1.10181,2.144971 -2.49396,3.477284 -6.19974,5.93329 -5.169,3.42573 -5.75024,3.60979 -7.27574,2.30403 -0.89915,-0.76961 -1.24565,-0.67817 -3.19807,0.84397 -1.24421,0.97001 -2.6594,2.8704 -3.27754,4.40126 -0.89933,2.2273 -1.95682,3.29743 -6.10238,6.17536 -5.29224,3.67397 -6.22707,3.99102 -7.7995,2.6451 -0.86285,-0.73857 -1.80624,-0.26166 -8.088641,4.08903 -6.25625,4.33255 -7.1863,5.19991 -7.73068,7.20943 -0.34034,1.25638 -1.17527,2.87305 -1.85538,3.59262 l -1.23654,1.30833 2.6038,-1.24729 c 3.38477,-1.62141 4.7585,-1.57374 5.99278,0.20791 l 1.00813,1.45522 8.309051,-3.91664 8.30902,-3.91666 0.72418,-2.85508 0.72417,-2.85508 5.76086,-2.5289 c 8.11335,-3.5616 8.06691,-3.55328 9.71295,-1.74332 1.29405,1.42288 1.55067,1.48792 3.15065,0.79841 1.12466,-0.48465 2.36127,-1.91113 3.48984,-4.02566 l 1.74795,-3.27505 6.25586,-2.24074 c 5.87223,-2.10337 6.32552,-2.18113 7.39194,-1.26834 1.07212,0.9177 1.1768,0.87948 1.85932,-0.67901 0.59586,-1.36056 1.67265,-1.98309 6.11341,-3.53439 2.9646,-1.03562 5.94713,-1.88047 6.62784,-1.87743 0.77343,0.004 2.86124,1.77378 5.56612,4.71974 2.38066,2.59286 4.41908,4.95583 4.52987,5.25109 0.11077,0.29524 -1.20037,2.45123 -2.9137,4.79107 -3.09178,4.22234 -3.16015,4.27152 -9.12365,6.561 -5.29891,2.03433 -6.08145,2.19748 -6.62581,1.38124 -0.52875,-0.79283 -0.80132,-0.67442 -1.90077,0.82563 -0.94036,1.28301 -2.91461,2.38744 -7.38448,4.13099 l -6.10097,2.3798 -1.09323,-1.3708 c -0.98711,-1.23774 -1.26958,-1.30174 -2.90942,-0.6593 -1.33969,0.52484 -2.09358,1.44112 -2.87345,3.49235 -1.03463,2.72127 -1.20301,2.84884 -7.86123,5.95599 l -6.80394,3.17518 -1.37289,-1.56169 -1.37288,-1.56168 -8.19456,4.11171 -8.19455,4.11171 v 2.24588 2.245905 l -6.602201,3.26105 c -3.93022,1.94128 -7.26368,3.21337 -8.2367,3.14324 -1.31784,-0.0949 -5.00347,2.59486 -19.02151,13.88218 -9.56284,7.69998 -17.29694,14.08511 -17.18692,14.18918 0.11004,0.10416 9.38627,-5.15178 20.61386,-11.67962 20.33364,-11.82222 20.4126,-11.87582 20.1086,-13.64766 -0.54055,-3.1505 1.05853,-4.17009 10.233961,-6.52537 8.43402,-2.16495 8.72587,-2.16398 9.54205,0.0322 0.27428,0.73799 6.70704,-0.91281 7.07315,-1.81512 0.69943,-1.72394 7.408,-4.715635 13.47089,-6.007345 3.40151,-0.7247 6.68679,-1.56735 7.30063,-1.87255 1.14719,-0.5704 28.51157,-4.54101 31.44209,-4.56231 1.55587,-0.0116 1.76055,0.36042 4.2138,7.6528 1.41818,4.215555 2.49128,7.726655 2.38468,7.802425 -1.4892,1.05839 -9.66643,3.32694 -14.72756,4.08575 -15.08228,2.26126 -20.89375,3.32206 -23.81062,4.3463 -1.70074,0.59721 -5.68905,1.71578 -8.86289,2.48568 -5.4223,1.31536 -5.81761,1.33911 -6.5489,0.3932 -0.72777,-0.94134 -1.00545,-0.94555 -4.27931,-0.0648 -2.01442,0.542 -3.50104,1.27422 -3.50104,1.72442 0,1.32342 -2.63042,2.51575 -10.19378,4.62072 -7.089011,1.97294 -7.733611,2.30156 -27.214171,13.87455 -19.66963,11.68528 -19.94932,11.87865 -19.68201,13.60855 0.25928,1.67803 -0.0547,1.95322 -7.1737,6.28813 -6.669094,4.06093 -7.756895,4.5333 -10.43969,4.5333 h -2.994863 z m 13.331704,-1.82819 c 3.75055,-2.29239 6.68047,-4.29916 6.51095,-4.45949 -0.16953,-0.16033 -2.61617,1.10072 -5.43701,2.80235 -8.048774,4.85531 -9.491281,5.82508 -8.664503,5.82508 0.424264,0 3.840007,-1.87558 7.590563,-4.16794 z m 0.43994,-12.3323 -3.782759,-6.8493 -2.216787,1.87699 c -1.219227,1.03233 -4.205126,3.55297 -6.635326,5.60139 l -4.418535,3.72442 3.027127,5.75943 3.027129,5.75945 7.390945,-4.51154 7.390966,-4.51155 z m -26.367374,9.43011 c -1.59439,-1.61866 -1.678373,-3.2926 -0.262373,-5.22974 0.590698,-0.80807 -0.569156,-0.12004 -2.628437,1.55914 -4.171564,3.40161 -6.167376,5.37222 -5.794916,5.72162 0.139657,0.13099 1.350976,1.06207 2.691848,2.06904 l 2.437968,1.83087 2.437735,-2.30565 2.437749,-2.30565 z m 4.648869,-11.64803 c 1.719427,0 0.782821,2.75104 -1.845382,5.42035 -3.70756,3.76553 -3.600116,4.76525 0.463845,4.31609 2.114913,-0.23375 2.840202,-0.16383 2.216128,0.21358 -0.676875,0.40935 -0.232701,0.56347 1.642863,0.57 2.281411,0.008 2.533579,-0.12469 2.241968,-1.17944 -0.180728,-0.65364 -0.850431,-1.45258 -1.488253,-1.77542 -0.637808,-0.32285 -1.159665,-0.90957 -1.159665,-1.30383 0,-0.39424 2.237394,-2.55658 4.971996,-4.8052 2.734588,-2.2486 5.827207,-4.79027 6.872473,-5.64816 l 1.900475,-1.55977 -3.579256,-4.72835 c -1.96859,-2.6006 -3.73925,-4.72661 -3.934799,-4.72448 -0.19555,0.002 -2.949649,2.63437 -6.120237,5.84943 -3.450935,3.49932 -6.24352,5.84555 -6.957647,5.84555 -0.656128,0 -1.192939,-0.2916 -1.192939,-0.64801 0,-0.35642 2.694026,-3.39964 5.986721,-6.76271 l 5.986721,-6.11465 -4.432632,-4.19245 -4.432631,-4.19241 -3.409459,3.18464 c -1.875215,1.75155 -3.409473,2.93868 -3.409473,2.63807 0,-0.30061 1.402048,-1.8893 3.11567,-3.53045 3.437709,-3.29233 3.542874,-4.39423 0.539337,-5.65167 -1.868552,-0.78228 -2.460905,-2.22267 -0.914061,-2.22267 0.487075,0 1.482417,-0.79277 2.211889,-1.76171 0.729486,-0.96893 1.564121,-1.62271 1.854759,-1.45281 0.290638,0.16989 0.729819,5.8e-4 0.975948,-0.37597 0.279488,-0.42773 0.179435,-0.52817 -0.266497,-0.26749 -1.225995,0.71665 -0.787685,-0.27276 1.141359,-2.57639 2.171806,-2.59352 2.426136,-3.57999 0.513511,-1.99172 -1.253449,1.04086 -1.245784,0.98902 0.116284,-0.78677 1.648815,-2.149595 1.980612,-2.355985 1.410512,-0.87742 -0.375566,0.97406 -0.334728,0.97399 0.842677,-9.2e-4 0.680548,-0.56371 1.468118,-0.826935 1.750163,-0.58495 0.282043,0.24198 0.305083,0.0995 0.05124,-0.316815 -0.565525,-0.92716 0.773953,-2.59245 1.66586,-2.07109 0.382359,0.2235 0.457878,0.0917 0.18591,-0.32454 -0.571958,-0.8753 0.795568,-2.52608 1.669458,-2.01525 0.384813,0.22495 0.45756,0.0912 0.180786,-0.33238 -0.288098,-0.4409 3.415889,-5.54623 9.799765,-13.50734 5.644608,-7.03929 10.262918,-12.9949 10.262918,-13.2348 0,-0.23988 -1.71207,1.73447 -3.80459,4.38747 -2.52903,3.20638 -3.96283,4.58152 -4.27648,4.1015 -0.29255,-0.44772 0.91819,-2.44923 3.18614,-5.26708 2.01192,-2.49973 3.65802,-4.6921 3.65802,-4.87194 0,-1.65528 -3.21095,1.8101 -12.987614,14.01678 -6.292801,7.85688 -11.658931,14.29271 -11.924716,14.30182 -0.265785,0.01 -0.66767,-0.44406 -0.893083,-1.00707 -1.05289,-2.62987 -4.506655,-3.36494 -6.870961,-1.46235 -1.239004,0.99703 -1.249006,1.16619 -0.384582,6.50458 l 0.887494,5.480945 -1.900504,2.26955 c -1.045283,1.24826 -1.598818,2.26957 -1.230075,2.26957 0.368728,0 0.670414,0.39482 0.670414,0.8774 0,0.48259 -0.417449,0.87742 -0.927678,0.87742 -0.510229,0 -0.927691,-0.24394 -0.927691,-0.5421 0,-0.29817 -0.88893,-0.96154 -1.975414,-1.47416 -1.589048,-0.74977 -2.112095,-0.78674 -2.674253,-0.18909 -2.6984544,2.86892 -9.0656034,10.47548 -8.8777484,10.60587 0.126882,0.088 1.939919,1.40911 4.029106,2.93572 l 3.7985244,2.77565 1.584867,-1.49899 c 1.62447,-1.53644 3.147782,-1.92088 3.779682,-0.95386 0.195912,0.29983 -0.393234,0.62887 -1.30921,0.73118 -3.264909,0.36474 -4.637385,4.78123 -3.238893,10.42254 l 0.652529,2.63224 -4.1485264,3.57695 c -2.281688,1.96734 -4.043246,3.81964 -3.914548,4.11629 0.128624,0.29661 1.870336,2.68448 3.870357,5.30637 l 3.6363944,4.76708 7.125075,-6.10487 c 3.918803,-3.35768 7.50067,-6.10486 7.959696,-6.10486 z m -2.876147,-1.46235 c 0,-0.48257 0.417462,-0.87742 0.927691,-0.87742 0.510215,0 0.927677,0.39485 0.927677,0.87742 0,0.48258 -0.417462,0.87742 -0.927677,0.87742 -0.510229,0 -0.927691,-0.39484 -0.927691,-0.87742 z M 23.24326,99.019365 c 0,-0.22872 0.357825,-0.69671 0.795162,-1.04001 0.597188,-0.46877 0.795148,-0.36524 0.795148,0.41583 0,0.572 -0.357811,1.03999 -0.795148,1.03999 -0.437337,0 -0.795162,-0.18712 -0.795162,-0.41581 z m 5.772269,-0.8773 c 0,-0.46842 0.231917,-0.85168 0.515383,-0.85168 0.283453,0 0.515382,0.24769 0.515382,0.55042 0,0.30274 -0.231929,0.686 -0.515382,0.85169 -0.283466,0.16565 -0.515383,-0.082 -0.515383,-0.55043 z m 1.855369,-2.26101 c 0,-0.48404 0.37108,-1.01476 0.824604,-1.17937 0.453539,-0.16466 0.824618,-0.70239 0.824618,-1.19506 0,-0.49268 0.285196,-0.89578 0.633758,-0.89578 0.348578,0 0.898294,-0.65807 1.221612,-1.46235 0.323318,-0.8043 0.873034,-1.46236 1.22161,-1.46236 0.348564,0 0.633758,-0.4031 0.633758,-0.89578 0,-0.49267 0.417464,-1.04728 0.927693,-1.23247 0.51023,-0.18519 0.927677,-0.71162 0.927677,-1.16988 0,-0.45825 0.392348,-0.9756 0.871872,-1.14962 0.479542,-0.17406 1.04145,-0.95546 1.248703,-1.73647 0.207253,-0.78102 0.788976,-1.42003 1.292734,-1.42003 0.503741,0 0.915902,-0.52646 0.915902,-1.1699 0,-0.64993 0.412307,-1.16988 0.927686,-1.16988 0.515371,0 0.927678,-0.51994 0.927678,-1.16989 0,-0.64993 0.412316,-1.16988 0.927695,-1.16988 0.510231,0 0.927681,0.14276 0.927681,0.3173 0,0.3086 -13.078409,16.76533 -14.529366,18.28249 -0.589523,0.61641 -0.725915,0.59367 -0.725915,-0.12105 z m 23.913681,51.221595 c 0,-0.27107 1.03605,-0.99493 2.30233,-1.60859 1.26628,-0.61368 2.86101,-1.5866 3.54383,-2.16205 0.68282,-0.57547 1.87321,-1.19627 2.64532,-1.37955 0.77211,-0.18327 1.40383,-0.56792 1.40383,-0.85477 0,-0.28683 0.41746,-0.52153 0.9277,-0.52153 0.51023,0 0.92768,-0.22176 0.92768,-0.49283 0,-0.27106 1.03606,-0.99491 2.30233,-1.6086 1.2663,-0.61367 2.86101,-1.58657 3.54383,-2.16204 0.68281,-0.57545 1.87321,-1.19625 2.64532,-1.37954 0.77212,-0.1833 1.40385,-0.52648 1.40385,-0.76266 0,-0.23618 1.03604,-0.93151 2.30234,-1.54517 1.26628,-0.61368 2.84601,-1.57339 3.51053,-2.13272 0.6645,-0.55933 1.78533,-1.18708 2.49071,-1.39498 0.70537,-0.20788 1.42165,-0.56959 1.59174,-0.80375 0.17007,-0.23417 2.32693,-1.64469 4.79303,-3.1345 2.46611,-1.48982 4.46426,-2.90791 4.44035,-3.1513 -0.2654,-2.70202 -0.70766,-2.49979 -21.60254,9.87743 -11.39507,6.74995 -21.09502,12.47951 -21.55544,12.73235 -0.70178,0.38537 -0.70272,0.66328 -0.006,1.71866 0.81479,1.234 2.38912,1.73883 2.38912,0.76614 z m 20.09987,-16.94919 c 10.54469,-6.23368 19.27073,-11.42351 19.39122,-11.53298 0.1205,-0.10943 0.11831,-0.48492 -0.004,-0.83433 -0.1231,-0.34941 -3.97883,1.57234 -8.5682,4.27054 -4.58938,2.69821 -14.18873,8.27986 -21.33193,12.40367 -14.81819,8.55463 -14.19344,8.14161 -13.62688,9.00864 0.29404,0.45 1.1385,0.24241 2.69824,-0.66331 1.24872,-0.72504 10.89782,-6.41856 21.4425,-12.65223 z m -36.488986,11.00765 c 0.61567,-0.64345 0.98025,-1.16989 0.81016,-1.16989 -0.170072,0 -0.812947,0.52644 -1.428615,1.16989 -0.61567,0.64344 -0.980245,1.16987 -0.81016,1.16987 0.170071,0 0.812947,-0.52643 1.428615,-1.16987 z m 14.533746,-0.88903 c 0.51023,-0.39114 9.83348,-5.91927 20.71833,-12.28469 10.88484,-6.36543 19.88276,-11.64216 19.99535,-11.72606 0.11266,-0.0839 -0.11831,-0.72341 -0.51305,-1.42109 -0.63332,-1.1192 -0.83939,-1.17023 -1.75087,-0.43334 -0.56821,0.45934 -2.56376,1.67895 -4.4346,2.71027 -1.87084,1.0313 -5.34967,3.02663 -7.73072,4.43406 -2.38107,1.40743 -5.99904,3.51184 -8.03995,4.67643 -2.04091,1.1646 -4.96311,2.89099 -6.49381,3.83643 -1.53066,0.94543 -3.2005,1.90019 -3.71073,2.1217 -0.51024,0.22149 -2.54764,1.41026 -4.52755,2.64172 -1.97992,1.23144 -3.74596,2.23899 -3.9245,2.23899 -0.17855,0 -1.13269,0.5442 -2.1203,1.20934 -1.47247,0.99168 -1.68276,1.40888 -1.16835,2.318 0.6514,1.15119 1.92373,1.04058 3.70075,-0.32176 z m -3.73009,-8.1889 c 0.27511,0.16084 1.24506,-0.63127 2.15545,-1.76018 0.91039,-1.1289 1.87117,-1.92635 2.13506,-1.77209 0.26388,0.15419 1.09471,-0.5062 1.84629,-1.46768 0.75156,-0.96145 1.59978,-1.61175 1.88492,-1.44507 0.28513,0.16666 1.26329,-0.62061 2.17367,-1.74953 0.91041,-1.12891 1.87118,-1.92635 2.13506,-1.77209 0.26388,0.15421 1.09472,-0.50621 1.8463,-1.46767 0.75156,-0.96147 1.59978,-1.61176 1.88491,-1.44509 0.28514,0.16667 1.25644,-0.61212 2.15847,-1.73064 0.90202,-1.11853 1.86224,-1.97146 2.13382,-1.89537 0.27159,0.0761 1.25974,-0.71787 2.19589,-1.7643 0.93614,-1.04646 1.91077,-1.78066 2.16582,-1.63157 0.25507,0.14906 1.07128,-0.50617 1.81386,-1.45611 0.74257,-0.94995 1.57693,-1.66347 1.85414,-1.58561 0.27721,0.0779 1.26998,-0.71465 2.20613,-1.76109 0.93614,-1.04646 1.92458,-1.77257 2.19652,-1.61362 1.02467,0.59895 2.33994,-2.27677 1.73735,-3.79856 l -0.57783,-1.45933 -1.13711,1.31611 c -0.6254,0.72388 -1.43203,1.31614 -1.79252,1.31614 -0.36047,0 -1.27268,0.78967 -2.02714,1.75482 -0.75445,0.96516 -1.73045,1.75484 -2.16888,1.75484 -0.43841,0 -1.25299,0.65804 -1.81019,1.46235 -0.55717,0.80429 -1.37831,1.46236 -1.82473,1.46236 -0.44643,0 -1.35896,0.65805 -2.02787,1.46234 -0.6689,0.80431 -1.50383,1.46236 -1.85537,1.46236 -0.35155,0 -1.18646,0.65807 -1.85536,1.46236 -0.66893,0.80429 -1.5157,1.46235 -1.88175,1.46235 -0.36606,0 -1.28283,0.78968 -2.0373,1.75484 -0.75445,0.96516 -1.71664,1.75482 -2.13821,1.75482 -0.42158,0 -1.31379,0.65806 -1.98269,1.46236 -0.66892,0.80429 -1.50384,1.46237 -1.85538,1.46237 -0.35155,0 -1.18645,0.65805 -1.85537,1.46235 -0.66891,0.80429 -1.50383,1.46236 -1.85537,1.46236 -0.35155,0 -1.18648,0.65805 -1.85538,1.46235 -0.66892,0.8043 -1.45445,1.47247 -1.74565,1.48483 -0.29118,0.0116 -1.92097,1.2016 -3.62172,2.64274 l -3.092303,2.62025 1.503149,1.19239 1.503134,1.19242 1.484,-1.79344 c 0.8162,-0.98639 1.70908,-1.66187 1.98418,-1.50107 z m -0.28988,2.0586 c 0.61566,-0.64342 0.98024,-1.16987 0.81017,-1.16987 -0.17008,0 -0.81296,0.52645 -1.42863,1.16987 -0.61567,0.64344 -0.98024,1.1699 -0.81015,1.1699 0.17007,0 0.81295,-0.52646 1.42861,-1.1699 z m 3.71074,-2.9247 c 0.61566,-0.64343 0.98024,-1.16989 0.81017,-1.16989 -0.17007,0 -0.81296,0.52646 -1.42863,1.16989 -0.61567,0.64344 -0.98023,1.16988 -0.81016,1.16988 0.17007,0 0.81296,-0.52644 1.42862,-1.16988 z m 10.1746,-15.42807 c 11.42925,-9.07545 19.62401,-15.986435 19.38673,-16.349585 -0.28258,-0.43243 -0.48843,-0.40952 -0.6586,0.0733 -0.13617,0.38632 -0.6216,0.702385 -1.0788,0.702385 -0.45718,0 -1.37854,0.65808 -2.04745,1.46237 -0.66892,0.80428 -1.50383,1.46234 -1.85537,1.46234 -0.35155,0 -1.18647,0.65806 -1.85539,1.46236 -0.66889,0.80429 -1.50381,1.46237 -1.85537,1.46237 -0.35153,0 -1.18646,0.65805 -1.85536,1.46235 -0.6689,0.8043 -1.50383,1.46236 -1.85538,1.46236 -0.35153,0 -1.18646,0.65805 -1.85536,1.46236 -0.66892,0.80429 -1.49929,1.46235 -1.84529,1.46235 -0.346,0 -1.33161,0.78968 -2.19027,1.75484 -0.85867,0.96514 -1.83728,1.75482 -2.1747,1.75482 -0.33743,0 -1.16079,0.65806 -1.82969,1.46236 -0.66892,0.8043 -1.50383,1.46234 -1.85537,1.46234 -0.35156,0 -1.15125,0.61573 -1.77711,1.36828 -0.62586,0.75253 -1.42274,1.47639 -1.77084,1.60858 -1.59129,0.60426 -12.542787,9.57116 -12.24538,10.0263 0.184105,0.28176 0.579216,0.4326 0.877997,0.33518 0.298764,-0.0973 9.452233,-7.25136 20.341003,-15.89765 z m -33.287853,14.4044 c 0.769278,-0.92773 0.7474,-0.94842 -0.233513,-0.22084 -0.595257,0.44155 -1.082302,0.90218 -1.082302,1.02366 0,0.48142 0.507878,0.17156 1.315815,-0.80282 z m 21.684473,-8.16569 c 5.54797,-4.41072 14.54008,-11.55968 19.9825,-15.88663 5.44243,-4.32693 9.89532,-8.154265 9.89532,-8.505175 0,-1.54471 -2.00891,-0.50522 -7.24546,3.749085 -0.98998,0.8043 -2.64802,2.12041 -3.68452,2.92471 -1.03651,0.80429 -2.70634,2.12041 -3.71074,2.9247 -1.00441,0.8043 -2.67425,2.12041 -3.71075,2.92472 -1.03649,0.80429 -2.70632,2.12042 -3.71074,2.92472 -2.62703,2.10362 -4.27962,3.39061 -12.44385,9.69081 -5.93666,4.58122 -7.159726,5.78156 -6.572685,6.45058 0.396691,0.45207 0.809565,0.82195 0.917499,0.82195 0.108011,0 4.735486,-3.60876 10.283426,-8.01947 z m 5.44874,5.97218 c 0.79891,-0.80429 1.31339,-1.46237 1.14332,-1.46237 -0.17007,0 -0.96287,0.65808 -1.76177,1.46237 -0.79889,0.80428 -1.31337,1.46235 -1.14329,1.46235 0.17007,0 0.96285,-0.65807 1.76174,-1.46235 z m 3.40153,-18.0718 c 8.16363,-6.40922 15.57235,-12.223865 16.4638,-12.921445 1.39962,-1.09524 1.56844,-1.57186 1.23692,-3.49219 -0.33893,-1.96326 -0.60133,-2.2376 -2.23929,-2.34125 -1.68438,-0.10665 -3.25184,1.30654 -17.00757,15.332775 -8.33372,8.4976 -15.789707,15.86019 -16.568848,16.36135 -0.779151,0.50114 -1.729642,1.46614 -2.112204,2.14444 -0.804625,1.42667 -0.765733,1.39768 20.227192,-15.08368 z m -22.774095,12.95133 c 0.74017,-0.62921 1.607469,-0.99103 1.927331,-0.80404 0.812696,0.47504 2.814972,-1.75667 2.932767,-3.26881 0.05403,-0.69413 2.054096,-3.09927 4.481517,-5.38922 11.94256,-11.26632 14.36017,-13.657655 14.36017,-14.204125 0,-0.32597 2.01772,-2.45716 4.48382,-4.73597 6.07567,-5.61426 8.22821,-8.21046 7.4319,-8.96363 -0.43277,-0.4093 -1.93267,0.54975 -4.72861,3.02347 -2.25216,1.99262 -4.09703,3.92177 -4.0997,4.28704 -0.003,0.36525 -2.36828,2.72231 -5.25688,5.23788 -2.88861,2.515555 -5.25201,4.850815 -5.25201,5.189455 0,0.33864 -2.50476,2.84581 -5.56614,5.57148 -3.061354,2.72567 -5.5661,5.22391 -5.5661,5.55167 0,0.32775 -1.934317,2.28973 -4.298492,4.35997 -3.110749,2.72402 -4.192542,4.03923 -3.9151,4.75986 0.324987,0.84412 0.155481,0.8176 -1.113021,-0.17411 l -1.496397,-1.16988 1.140415,1.27667 c 1.254986,1.40494 2.400266,1.26661 4.53453,-0.54771 z m 2.983458,-2.19134 c 0.615669,-0.64342 1.258549,-1.16986 1.428627,-1.16986 0.170078,0 -0.194498,0.52644 -0.810167,1.16986 -0.615668,0.64345 -1.258548,1.16991 -1.428618,1.16991 -0.170071,0 0.194489,-0.52646 0.810158,-1.16991 z m -1.46726,3.07098 c 0.769296,-0.92776 0.747411,-0.94846 -0.233498,-0.22087 -0.595257,0.44156 -1.082303,0.90219 -1.082303,1.02364 0,0.48144 0.507878,0.17159 1.315801,-0.80277 z m 66.003778,-3.09854 c 3.62234,-0.98033 6.92439,-1.88988 7.33787,-2.02123 0.57856,-0.18377 0.54707,-0.88218 -0.13675,-3.03105 -0.50373,-1.58305 -0.65552,-3.01262 -0.35053,-3.30109 0.30501,-0.28848 0.72442,0.29403 0.9685,1.34509 0.30542,1.31521 0.69771,1.75695 1.35007,1.52017 0.50576,-0.18356 1.33066,-0.33374 1.83314,-0.33374 0.53311,0 0.72982,-0.28126 0.47232,-0.67533 -0.25803,-0.39487 -0.17115,-0.51741 0.20921,-0.29507 0.85757,0.50129 4.55488,-0.2093 4.16817,-0.8011 -0.16503,-0.25254 0.25695,-0.3214 0.93772,-0.15304 0.68076,0.16838 1.23777,0.0572 1.23777,-0.24724 0,-0.30435 0.62619,-0.53247 1.39152,-0.50693 1.17059,0.0391 1.37868,-0.24127 1.31056,-1.76566 -0.0988,-2.21338 -1.86587,-5.88041 -3.03862,-6.30607 -0.47272,-0.17157 -2.19062,0.0526 -3.81759,0.49822 -1.62698,0.44556 -4.16862,1.10922 -5.64814,1.47479 -2.23869,0.55314 -2.63596,0.86013 -2.36788,1.82972 0.5225,1.88979 -0.96853,0.93642 -1.70255,-1.0886 -0.36357,-1.00308 -0.84576,-1.9954 -1.07148,-2.20521 -0.32804,-0.30484 -6.73922,1.10118 -13.580621,2.97834 -0.88233,0.24209 -0.73305,1.1559 1.23691,7.57111 1.2322,4.01266 2.33799,7.29589 2.45731,7.29604 0.11933,1.4e-4 3.180671,-0.80182 6.803031,-1.78214 z m -73.504143,0.99566 c 0,-0.11109 -0.626193,-0.70325 -1.391537,-1.31612 l -1.391524,-1.11431 1.178147,1.31611 c 1.107185,1.23683 1.604914,1.58242 1.604914,1.11432 z m 6.013318,-3.4372 c 2.135104,-2.00144 3.882002,-3.87606 3.882002,-4.1658 0,-0.28975 2.504746,-2.75691 5.566112,-5.4826 3.06137,-2.72566 5.56611,-5.23044 5.56611,-5.56617 0,-0.33575 2.3656,-2.70378 5.25689,-5.262285 2.89128,-2.55852 5.25689,-4.96931 5.25689,-5.35729 0,-0.38799 1.94813,-2.35512 4.32921,-4.37143 2.38105,-2.01629 4.32918,-4.06605 4.32918,-4.55503 0,-0.48897 -0.22326,-0.80131 -0.49617,-0.69409 -0.2729,0.10731 -8.71477,8.35496 -18.75972,18.328235 -10.044929,9.97328 -18.786128,18.52805 -19.424893,19.01064 -2.611872,1.97325 1.611128,-2.75127 6.785511,-7.59135 2.915885,-2.7275 5.301616,-5.26835 5.301616,-5.64631 0,-0.37797 2.643916,-2.98264 5.875346,-5.78815 3.23145,-2.805505 5.87533,-5.444395 5.87533,-5.864215 0,-0.41981 2.51365,-2.9435 5.58587,-5.6082 5.53873,-4.80406 7.91801,-7.85369 6.88764,-8.82823 -0.2986,-0.28243 -7.68866,6.58472 -16.79752,15.60894 -8.945378,8.862295 -16.584963,16.113245 -16.976861,16.113245 -1.251719,0 -5.47382,4.51421 -4.958989,5.30207 0.327135,0.50064 0.222857,0.58027 -0.333785,0.25489 -0.579418,-0.33868 -0.668337,-0.23967 -0.312791,0.34833 0.687428,1.1368 2.929164,3.45381 3.341618,3.45381 0.186679,0 2.086298,-1.63755 4.221404,-3.63901 z m 7.283521,-0.45561 c 0.615652,-0.64343 0.980228,-1.16987 0.810158,-1.16987 -0.170078,0 -0.812967,0.52644 -1.428618,1.16987 -0.615669,0.64344 -0.980245,1.16989 -0.810175,1.16989 0.170086,0 0.812966,-0.52645 1.428635,-1.16989 z m -10.823013,-5.50191 c 0,-0.32172 -1.113224,0.44321 -2.473826,1.69979 -1.360615,1.2566 -2.473839,2.54796 -2.473839,2.86967 0,0.32173 1.113224,-0.44317 2.473839,-1.69979 1.360602,-1.2566 2.473826,-2.54795 2.473826,-2.86967 z m -3.004045,-0.15735 c 2.003955,-1.96988 2.751181,-3.1252 2.473681,-3.82468 -0.536013,-1.35107 -1.259488,-0.8019 -4.557409,3.45936 -1.543883,1.99488 -3.023484,3.4426 -3.288006,3.21719 -0.264508,-0.22541 -0.280273,-0.0801 -0.03499,0.32293 0.616483,1.01305 1.932617,0.24022 5.40675,-3.1748 z m 96.937522,3.25556 c 2.11099,-0.69603 2.12862,-0.95849 0.3274,-4.87035 l -0.8254,-1.7926 -0.0242,1.82944 c -0.0131,1.00619 -0.4116,2.13352 -0.88508,2.50516 -0.97671,0.7667 -1.74066,2.97718 -1.02889,2.97718 0.25753,0 1.35382,-0.29197 2.43618,-0.64883 z m 16.15194,-5.50572 c 0.51023,-0.38604 3.15412,-1.02256 5.87534,-1.41447 8.26244,-1.18995 7.67875,-0.82052 7.29971,-4.62001 -0.18173,-1.82158 -0.8093,-4.109445 -1.39462,-5.084165 -0.5853,-0.97473 -1.2542,-2.48826 -1.48644,-3.36342 -0.25685,-0.96795 -0.84154,-1.58949 -1.49277,-1.5868 -1.10156,0.006 -7.8609,0.94829 -10.72009,1.49675 l -1.60963,0.30877 1.14579,3.90815 c 1.35933,4.636455 1.37263,4.810905 0.36718,4.810905 -0.42822,0 -1.42736,-1.71098 -2.22032,-3.80215 -0.79295,-2.091165 -1.62537,-3.803945 -1.84983,-3.806175 -1.31552,-0.0132 -11.84959,2.55713 -11.84959,2.89116 0,0.37474 2.68309,7.915185 4.31155,12.117025 l 0.71424,1.8429 5.99088,-1.49828 c 3.29501,-0.82405 6.40837,-1.81414 6.9186,-2.20019 z m -119.201511,2.18891 c -0.08159,-0.37344 0.41318,-0.96326 1.099621,-1.31073 0.686456,-0.34745 1.09335,-0.86857 0.904217,-1.15799 -0.189132,-0.28945 0.228331,-0.81588 0.927678,-1.16989 0.699361,-0.35401 1.116824,-0.88046 0.927691,-1.1699 -0.189132,-0.28942 0.22833,-0.81587 0.927693,-1.16987 0.699347,-0.354 1.116809,-0.88046 0.927677,-1.16989 -0.189132,-0.28945 0.22833,-0.81589 0.927691,-1.16988 0.699348,-0.35401 1.116811,-0.88045 0.927679,-1.1699 -0.189119,-0.28943 0.228329,-0.81588 0.927691,-1.16987 0.699362,-0.35401 1.116811,-0.88046 0.927692,-1.16989 -0.189133,-0.289445 0.228315,-0.815895 0.927677,-1.169895 0.699362,-0.35399 1.116824,-0.88044 0.927693,-1.16988 -0.189134,-0.28944 0.228329,-0.81589 0.927676,-1.1699 0.699361,-0.35398 1.116825,-0.88044 0.927693,-1.16987 -0.189134,-0.28944 0.228328,-0.8159 0.927691,-1.1699 0.69935,-0.35398 1.116811,-0.88044 0.927681,-1.16987 -0.189138,-0.28945 0.228323,-0.81588 0.927687,-1.16989 0.699346,-0.35401 1.116815,-0.88046 0.927677,-1.16989 -0.189121,-0.28943 0.217775,-0.81055 0.90422,-1.158 0.686437,-0.34747 1.181271,-0.83245 1.09962,-1.07775 -0.08177,-0.24529 2.912905,-4.32671 6.654575,-9.06983 3.74166,-4.74308 6.73344,-8.81193 6.64841,-9.04186 -0.43743,-1.18269 -2.08249,0.57402 -11.11155,11.86577 C 26.899311,105.86522 23.24326,110.30327 23.24326,109.61373 c 0,-0.38147 -0.261182,-0.54092 -0.580407,-0.3543 -0.454845,0.26587 -0.523208,2.60894 -0.10859,3.72101 0.202228,0.54238 2.21273,-0.361 2.086662,-0.93757 z m 68.05055,-1.29225 c -0.17689,-0.63984 -0.55614,-1.02624 -0.84278,-0.8587 -0.60872,0.35584 -0.0567,2.02199 0.67004,2.02199 0.27192,0 0.34965,-0.52349 0.17274,-1.16329 z m 55.028091,-0.39028 c -0.41872,-0.16018 -1.25365,-0.16997 -1.85539,-0.0217 -0.60174,0.14824 -0.25915,0.27942 0.76131,0.29134 1.02045,0.0116 1.51278,-0.10944 1.09408,-0.26966 z m 3.37686,-0.55466 c -0.20551,-0.19437 -0.73894,-0.21515 -1.18537,-0.0461 -0.49338,0.18672 -0.34682,0.32533 0.37364,0.35341 0.65195,0.0254 1.01723,-0.11292 0.81173,-0.30724 z m 4.66308,-0.61523 c -0.41872,-0.16018 -1.25364,-0.16998 -1.85537,-0.0217 -0.60175,0.14824 -0.25915,0.27939 0.7613,0.29132 1.02045,0.0116 1.51278,-0.10944 1.09407,-0.26965 z m 5.70896,-0.71138 2.47382,-0.44271 -2.17415,-0.26752 c -1.1958,-0.14707 -2.86564,0.0633 -3.71076,0.46781 -1.32599,0.63453 -1.36705,0.73186 -0.29965,0.71023 0.6803,-0.0132 2.35014,-0.22432 3.71074,-0.46781 z m 4.79304,-1.04716 c -0.42519,-0.16233 -1.12095,-0.16233 -1.54614,0 -0.42519,0.16233 -0.0773,0.29505 0.77307,0.29505 0.85037,0 1.19827,-0.13282 0.77307,-0.29505 z m -67.068741,-8.906515 0.18848,-2.33965 -6.37307,3.15297 c -5.36539,2.654425 -6.42813,3.412295 -6.72138,4.793135 -0.6498,3.0598 -0.0459,3.04563 6.41669,-0.15055 6.2732,-3.10259 6.30161,-3.12647 6.48928,-5.455885 z M 32.52012,105.47954 c 0.364083,-0.64343 0.522816,-1.16987 0.352745,-1.16987 -0.170072,0 -0.607119,0.52644 -0.971201,1.16987 -0.364096,0.64345 -0.522831,1.16989 -0.352744,1.16989 0.170071,0 0.607118,-0.52644 0.9712,-1.16989 z m 136.86535,-0.0586 c 3.66548,-0.52902 4.74567,-0.89106 4.49581,-1.50686 -0.18086,-0.44582 -1.19078,-3.4346 -2.24427,-6.641795 -1.05347,-3.20714 -2.10252,-5.82647 -2.33121,-5.8207 -1.07164,0.0269 -12.01163,1.69856 -12.15385,1.85698 -0.0889,0.099 0.75881,3.07531 1.8836,6.61419 1.12476,3.538925 2.06273,6.521105 2.08438,6.627095 0.0216,0.1059 0.80466,0.0521 1.74007,-0.11989 0.93543,-0.17194 3.87188,-0.62597 6.52547,-1.00896 z m -44.18578,-2.91732 c -0.93226,-2.609485 -0.73331,-2.522645 -3.1004,-1.35346 l -2.06745,1.02118 2.16459,0.53628 c 1.19053,0.29494 2.39884,0.92746 2.68514,1.4056 0.87924,1.46837 1.07104,0.49789 0.31812,-1.6096 z M 90.208899,98.973355 c 7.12229,-3.38155 9.23612,-4.71714 8.5271,-5.38775 -1.6488,-1.55946 -0.38921,-2.55649 8.990591,-7.11653 5.2941,-2.57374 9.74548,-4.85789 9.89196,-5.07591 0.1465,-0.21801 -0.37577,-1.10243 -1.16058,-1.96539 l -1.42693,-1.569 -9.55952,4.52288 c -5.25774,2.4876 -9.738521,4.78977 -9.957301,5.116 -0.37603,0.56067 -1.09515,-0.032 -3.14661,-2.59342 -0.71527,-0.89305 -1.34163,-0.71162 -7.06808,2.04729 l -6.28329,3.02721 3.38306,5.41072 c 1.86068,2.9759 3.51329,5.410735 3.67247,5.410735 0.15918,0 2.02088,-0.822075 4.13713,-1.826835 z m 6.63079,-9.57729 c 0,-0.38975 9.970481,-5.09817 10.245321,-4.83823 0.12209,0.11539 -2.13317,1.31471 -5.01166,2.66493 -2.878511,1.35023 -5.233661,2.32821 -5.233661,2.1733 z m -78.343392,2.10166 c 0.612867,-0.70445 0.435944,-0.76702 -1.127116,-0.39859 -1.019763,0.24038 -1.921265,0.50057 -2.003333,0.5782 -0.08203,0.0776 0.334801,1.30656 0.926415,2.73093 l 1.075653,2.58978 0.200689,-2.33234 c 0.110333,-1.28281 0.527854,-2.7084 0.927692,-3.16798 z m 87.776373,-0.42326 c 3.13364,-1.48853 6.00808,-3.10809 6.38762,-3.59903 0.42084,-0.54435 1.00529,-0.70838 1.49793,-0.4204 0.57099,0.33378 0.65941,0.24507 0.3016,-0.3025 -0.37066,-0.56722 -0.22199,-0.67157 0.55502,-0.38956 0.7152,0.25958 0.91688,0.16414 0.61845,-0.29248 -0.2984,-0.45667 -0.0966,-0.55203 0.61847,-0.29247 0.58496,0.21232 0.90403,0.14459 0.71092,-0.15088 -0.19266,-0.29486 0.21033,-0.70444 0.89557,-0.91013 1.37128,-0.41164 1.4956,-0.7714 0.68496,-1.98202 -0.4385,-0.65483 -1.23396,-0.44103 -4.16512,1.11949 -1.99272,1.06087 -6.31587,3.26963 -9.60703,4.90829 -5.139211,2.55884 -5.898771,3.12335 -5.380781,3.9988 0.33173,0.56064 0.734031,1.01937 0.894011,1.01937 0.15997,0 2.85474,-1.21789 5.98838,-2.70642 z m -76.246046,-2.34469 c 0.01015,-1.00864 -0.410974,-2.71961 -0.937317,-3.80212 l -0.956973,-1.96822 0.350435,3.00403 c 0.373505,3.20171 -0.018,3.69527 -2.970873,3.7457 -1.077947,0.0184 -0.946724,0.18496 0.669036,0.84918 1.105487,0.45446 2.009979,1.15251 2.009979,1.55125 0,0.39875 0.408608,0.21403 0.90802,-0.41048 0.499415,-0.62449 0.916878,-1.96071 0.927693,-2.96934 z m -7.711056,0.1994 4.329209,-0.71686 0.181526,-4.575 c 0.173672,-4.37679 0.126737,-4.55858 -1.082302,-4.19562 -1.197469,0.35945 -1.263828,0.14492 -1.263828,-4.08652 0,-4.36244 -0.03223,-4.45644 -1.391524,-4.05729 -0.765343,0.22475 -2.156881,0.91848 -3.092296,1.54161 -1.525911,1.0165 -1.700759,1.4857 -1.700759,4.56394 0,3.30805 -0.06098,3.43761 -1.700759,3.61607 -1.673742,0.18215 -1.703619,0.25691 -1.881196,4.70866 l -0.180436,4.52357 1.726586,-0.30286 c 0.949612,-0.16655 3.674719,-0.62543 6.055779,-1.0197 z M 126.7765,87.239205 c 4.62465,-2.1693 5.32683,-2.71216 6.18702,-4.78332 0.53366,-1.28499 0.86651,-2.43448 0.73964,-2.55448 -0.12687,-0.12005 -2.62256,0.90383 -5.54601,2.27514 -4.93429,2.31454 -5.38013,2.67311 -6.21895,5.00148 -0.49698,1.37951 -0.78542,2.5082 -0.64101,2.5082 0.14445,0 2.61014,-1.10117 5.47931,-2.44702 z m -40.040551,-6.07223 c 0.84669,-2.08687 -0.50692,-1.67999 -5.20309,1.5639 -4.01517,2.7735 -5.10226,3.83321 -5.10226,4.97371 0,1.36529 0.28914,1.24108 4.99015,-2.14355 2.74457,-1.97605 5.13641,-3.9534 5.3152,-4.39406 z m 34.125681,5.67291 c 1.01134,-3.19264 0.92091,-3.3228 -0.89247,-1.2845 -0.88519,0.995 -1.45025,2.19909 -1.25632,2.67712 0.60168,1.48296 1.40223,0.96411 2.14879,-1.39262 z m -39.349161,-6.11602 5.36697,-3.69785 -1.20446,-1.87323 c -0.66244,-1.03029 -1.20445,-1.97743 -1.20445,-2.10478 0,-0.25427 9.81751,-7.06877 12.502,-8.67782 2.62886,-1.57574 2.89545,-1.17821 0.31995,0.47705 -1.26949,0.8159 -2.30818,1.75272 -2.30818,2.08182 0,0.32911 -0.23057,0.46358 -0.51241,0.29885 -0.28183,-0.16481 -1.41221,0.47778 -2.51199,1.42783 -1.09977,0.95006 -2.26945,1.72736 -2.59928,1.72736 -0.32983,0 -0.7599,0.39485 -0.95568,0.87743 -0.1958,0.48256 -0.71391,0.87741 -1.15135,0.87741 -0.88166,0 -1.6718,1.44101 -1.09122,1.99011 0.71166,0.67309 2.50827,0.34168 2.86103,-0.52776 0.19577,-0.48257 0.78217,-0.87742 1.30308,-0.87742 0.52089,0 0.94708,-0.26323 0.94708,-0.58493 0,-0.32172 0.4262,-0.58495 0.94711,-0.58495 0.5209,0 1.10728,-0.39484 1.30308,-0.87741 0.1958,-0.48259 0.71389,-0.87741 1.15133,-0.87741 0.43744,0 0.95553,-0.39484 1.15134,-0.87742 0.19579,-0.48258 0.78218,-0.87743 1.30308,-0.87743 0.52091,0 0.94711,-0.2632 0.94711,-0.58493 0,-0.32171 0.38768,-0.58493 0.86151,-0.58493 0.47384,0 1.02171,-0.39485 1.217501,-0.87743 0.19579,-0.48256 0.7524,-0.87741 1.23692,-0.87741 0.4845,0 1.04112,-0.39483 1.23691,-0.87741 0.1958,-0.48256 0.78218,-0.87741 1.30308,-0.87741 0.5209,0 0.94711,-0.38568 0.94711,-0.85706 0,-0.94243 -3.53134,-4.99238 -4.35308,-4.99238 -1.065951,0 -17.438051,11.38305 -17.836201,12.40099 -0.37976,0.97095 -0.60481,0.91557 -2.56308,-0.63065 l -2.14675,-1.69509 -5.38806,3.52563 c -4.68631,3.06645 -5.29065,3.6531 -4.64032,4.50435 1.69638,2.22049 7.57433,8.7871 7.87206,8.79432 0.17671,0.004 2.73644,-1.6562 5.68826,-3.69004 z m 47.326951,-0.53638 c 3.70928,-1.61771 5.61215,-2.75749 5.42139,-3.24728 -0.16166,-0.41505 0.069,-0.67828 0.51252,-0.58492 0.44355,0.0933 2.2481,-0.46752 4.0101,-1.24638 3.77655,-1.66938 4.089,-2.88955 1.49297,-5.83063 l -1.71064,-1.93805 -4.48434,2.06412 -4.48432,2.06414 -1.70575,-1.72624 -1.70574,-1.72624 -5.64681,2.43947 -5.6468,2.43949 3.76697,4.88597 c 2.07184,2.68728 3.92406,4.88894 4.11605,4.89257 0.19201,0.004 2.921,-1.11508 6.0644,-2.48602 z m 13.71645,-2.20011 c 0.6943,-1.37889 0.68143,-1.39754 -0.22545,-0.32692 -0.52901,0.62449 -0.96181,1.39223 -0.96181,1.70608 0,0.74319 0.28567,0.41135 1.18726,-1.37916 z m 5.32439,-0.52973 c 3.05635,-1.20486 4.72817,-2.26907 5.74321,-3.65588 0.78753,-1.07596 2.03991,-2.57035 2.78307,-3.32084 l 1.3512,-1.36452 -3.09229,1.1583 c -8.34223,3.12482 -8.13173,2.99684 -9.855,5.99147 -0.91502,1.59008 -1.56869,2.89106 -1.45261,2.89106 0.11615,0 2.15117,-0.7648 4.52242,-1.69959 z m -122.372037,-0.7864 c -0.171567,-0.40216 -0.311935,-0.0731 -0.311935,0.73117 0,0.80431 0.140382,1.13332 0.311935,0.73118 0.171567,-0.40215 0.171567,-1.0602 0,-1.46235 z m 116.350307,0.12352 c 0.4331,-0.6559 1.00559,-1.06505 1.2722,-0.90921 0.26662,0.15586 0.94693,-0.45664 1.51182,-1.36109 0.97467,-1.56061 0.96471,-1.69779 -0.19576,-2.69108 -0.69815,-0.59757 -1.2228,-0.75678 -1.2228,-0.37106 0,0.37158 0.27831,0.67561 0.61846,0.67561 1.16511,0 0.61818,1.33593 -1.2313,3.00762 -1.01735,0.91956 -2.14701,1.67192 -2.51032,1.67192 -0.36332,0 -0.48858,0.26322 -0.27836,0.58494 0.57839,0.88513 1.16625,0.70967 2.03606,-0.60765 z m -114.596022,-3.34072 -0.365999,-2.19352 0.976181,1.60859 c 2.066263,3.40487 3.384489,1.25769 1.872005,-3.04919 -1.130732,-3.21986 -1.117348,-3.20855 -2.794152,-2.35979 -0.797659,0.40378 -1.096225,1.08774 -0.957555,2.19354 0.110768,0.88376 0.233253,2.59393 0.272042,3.80037 0.03876,1.20645 0.361426,2.19353 0.717001,2.19353 0.399795,0 0.506832,-0.83697 0.280477,-2.19353 z m 32.476311,0.44879 c 0.39019,0.59713 1.6191,-0.21859 4.93729,-3.27726 4.24941,-3.91705 4.41029,-4.16617 4.22078,-6.53587 l -0.19702,-2.4636 -4.32919,3.7665 c -2.38106,2.07154 -4.6771,3.77865 -5.10228,3.79355 -0.42519,0.015 -0.77307,0.64963 -0.77307,1.41054 0,0.7609 -0.60871,2.11538 -1.35269,3.00995 l -1.35268,1.62646 1.71469,-1.06262 c 1.40743,-0.8722 1.8078,-0.92017 2.23417,-0.26765 z m 100.467611,-4.1428 c 1.2734,-1.95127 2.15443,-3.6999 1.95784,-3.88584 -0.1966,-0.18594 -0.53231,0.0929 -0.74604,0.61971 -0.21373,0.52677 -0.63774,0.81213 -0.94224,0.63414 -0.30452,-0.178 -0.55366,0.23387 -0.55366,0.91527 0,0.78756 -0.26015,1.08688 -0.71402,0.82157 -0.44405,-0.25958 -0.54607,-0.16034 -0.26978,0.26245 0.24432,0.37388 0.009,1.09141 -0.5229,1.59452 -0.84567,0.79983 -1.36079,2.58596 -0.74581,2.58596 0.12181,0 1.2632,-1.5965 2.53661,-3.54778 z m 9.35309,-2.34226 c 3.17558,-4.02117 3.09295,-4.1221 -1.79438,-2.19267 -3.75025,1.48054 -4.81291,2.21333 -6.18548,4.26535 -0.91153,1.36272 -1.65733,2.6364 -1.65733,2.83036 0,0.19396 1.81182,-0.37837 4.02622,-1.27185 2.67305,-1.07852 4.55887,-2.29896 5.61097,-3.63119 z m -153.661013,3.39429 c -0.610791,-0.5734 -0.681825,-0.50622 -0.346196,0.32744 0.232249,0.5769 0.578055,0.90152 0.768479,0.72143 0.19041,-0.18009 3.92e-4,-0.65208 -0.422283,-1.04887 z m 135.813163,-1.04796 c 2.64503,-0.98385 5.08746,-2.12566 5.42761,-2.53735 0.34015,-0.41168 0.96634,-0.63768 1.39153,-0.50219 0.95585,0.30457 0.97513,-0.14193 0.0774,-1.7907 -1.42483,-2.61655 -3.13606,-3.90345 -4.69759,-3.53276 -1.10331,0.2619 -1.94794,-0.061 -3.25322,-1.24381 l -1.76302,-1.59755 -4.84515,1.76929 c -2.66483,0.97313 -4.81375,1.95022 -4.77538,2.17131 0.0915,0.52672 7.03205,9.05259 7.36941,9.05259 0.14271,0 2.42345,-0.80498 5.06848,-1.78883 z m -124.208202,-3.8231 c 0.132109,-0.11244 -0.7,-1.3629 -1.849185,-2.77874 -1.900416,-2.34142 -2.285767,-2.54956 -4.260208,-2.30111 -1.87295,0.2357 -2.364249,0.0248 -3.580837,-1.53682 -1.692948,-2.17318 -2.614412,-2.25341 -4.863696,-0.4235 l -1.704302,1.38653 1.173123,1.68443 c 0.645212,0.92643 1.20859,2.11461 1.251953,2.6404 0.04341,0.5258 0.969256,2.01932 2.057539,3.31893 l 1.978709,2.36295 4.778335,-2.0743 c 2.628088,-1.14086 4.886446,-2.16632 5.018569,-2.27877 z m -2.572341,3.5037 c -0.205509,-0.19438 -0.738922,-0.21516 -1.185376,-0.0461 -0.49336,0.18673 -0.346806,0.32534 0.373649,0.35341 0.651964,0.0254 1.017235,-0.11293 0.811727,-0.30723 z m 86.157533,-4.42396 c 3.95352,-2.72826 6.7779,-5.94722 5.92556,-6.75339 -0.17917,-0.16944 -1.73983,0.67367 -3.46812,1.87359 -2.23313,1.55044 -3.58251,2.10211 -4.66357,1.90665 -1.72995,-0.31278 -2.96306,0.73473 -2.42527,2.06025 0.19915,0.49082 0.0217,1.09129 -0.3941,1.33441 -0.48533,0.28368 -0.59707,0.19852 -0.312,-0.23775 0.32682,-0.50015 0.0104,-0.49255 -1.19994,0.0289 -1.45684,0.62781 -1.51418,0.75326 -0.50326,1.10113 0.6275,0.21594 1.34963,0.27839 1.60475,0.13878 0.25511,-0.13961 0.46383,0.15653 0.46383,0.65815 0,0.50156 0.13328,0.91194 0.2961,0.91194 0.16285,0 2.26706,-1.36014 4.67602,-3.02253 z m -43.384841,-6.12201 c -0.54445,-0.62044 -0.47564,-0.79948 0.30723,-0.79948 1.51598,0 5.11632,-2.72674 10.14319,-7.682043 l 4.50673,-4.442528 -2.24565,-1.864854 c -1.23511,-1.025688 -2.46477,-1.785366 -2.73262,-1.688218 -0.26784,0.09717 -3.73896,2.940502 -7.71361,6.318562 -7.24143,6.154471 -8.25352,6.635651 -10.30734,4.900561 -0.88839,-0.75054 -1.46656,-0.44182 -5.25689,2.807 -2.34228,2.00764 -4.2587,3.84398 -4.2587,4.08075 0,0.23677 2.0552,1.88476 4.56714,3.66221 l 4.56714,3.23173 4.56245,-3.86209 c 3.62329,-3.0671 4.41805,-4.02667 3.86093,-4.6616 z m 71.432971,6.55752 c -0.54624,-1.34631 -2.00923,-1.60756 -1.64601,-0.29392 0.17124,0.61937 0.68762,1.12612 1.1475,1.12612 0.46895,0 0.68788,-0.36547 0.49851,-0.8322 z M 11.867689,64.226545 c 0.07331,-0.472 -0.06127,-0.97185 -0.299001,-1.11079 -0.237694,-0.13896 -0.492009,0.43108 -0.565119,1.26671 -0.135303,1.54652 0.621113,1.41004 0.86412,-0.15586 z m 39.7385,-0.22751 c -1.60832,-1.23325 -2.11551,-1.16253 -1.55586,0.21689 0.20144,0.49644 0.96241,0.90263 1.69107,0.90263 1.30706,0 1.30524,-0.015 -0.13516,-1.11952 z m 115.815301,-0.24698 c 1.82812,-0.75156 3.82814,-1.53924 4.44451,-1.75039 1.33936,-0.4588 1.09814,-0.84638 -3.64821,-5.86189 l -3.14602,-3.32441 -4.24993,1.51297 c -2.33745,0.83213 -4.48282,1.64914 -4.7675,1.81552 -0.28468,0.16642 1.02578,1.96521 2.91212,3.99735 1.88633,2.03214 3.42971,3.98337 3.42971,4.33607 0,0.97532 1.36979,0.77764 5.02532,-0.72522 z M 10.538475,61.568485 c -0.19571,-0.29948 -0.6872844,-0.52375 -1.0923924,-0.49835 -0.5272,0.0329 -0.515732,0.13034 0.04035,0.34245 0.427306,0.16299 0.5930374,0.57766 0.368279,0.9216 -0.24356,0.37275 -0.11614,0.45437 0.3154624,0.20209 0.398257,-0.23277 0.563987,-0.6683 0.368293,-0.96779 z m 148.765395,0.98946 c 0,-0.12153 -0.48703,-0.58212 -1.0823,-1.02365 -0.98089,-0.72759 -1.00277,-0.70692 -0.2335,0.22084 0.80794,0.97437 1.3158,1.28424 1.3158,0.80281 z m -41.80201,-7.11806 c 0.98174,-0.66388 1.04715,-0.95075 0.38812,-1.70181 -0.67114,-0.76486 -0.59703,-0.90334 0.48349,-0.90334 0.70188,0 1.45095,-0.26752 1.66459,-0.59449 0.21366,-0.32696 0.63358,-0.45119 0.93317,-0.27608 0.29959,0.1751 0.81541,-0.16001 1.14629,-0.74479 0.33088,-0.584755 1.31891,-1.426287 2.19564,-1.870063 2.07457,-1.050109 2.01456,-1.4983 -0.52199,-3.897395 l -2.116,-2.001334 -4.00018,2.644778 c -4.34058,2.869846 -5.60327,3.159086 -7.33189,1.679496 -1.06003,-0.907333 -1.39277,-0.798627 -5.54106,1.810316 l -4.41329,2.775622 4.5111,4.29532 4.51111,4.29531 3.45507,-2.35653 c 1.90027,-1.29609 3.9864,-2.71585 4.63583,-3.15501 z m -107.034637,3.56653 c 0.229389,-0.5654 0.04674,-0.73975 -0.5487444,-0.52364 -0.49095,0.17818 -0.73866,0.55962 -0.550456,0.84763 0.473993,0.72538 0.7005384,0.6586 1.0992004,-0.32399 z m 9.244487,-0.32226 c -0.177897,-0.64344 -0.585735,-1.16988 -0.906279,-1.16988 -0.320559,0 -0.412192,-0.26114 -0.203636,-0.58031 0.208572,-0.31917 0.09683,-1.04302 -0.248219,-1.6086 -0.49516,-0.81152 -0.575731,-0.61883 -0.382214,0.91406 0.134866,1.06827 0.575369,2.31861 0.978908,2.77848 0.986213,1.12391 1.145208,1.05425 0.76144,-0.33375 z m 54.554279,-2.33976 c 2.01962,-1.93032 3.53287,-3.50966 3.36279,-3.50966 -0.17007,0 -1.96163,1.57934 -3.98124,3.50966 -2.01962,1.9303 -3.53287,3.50964 -3.3628,3.50964 0.17007,0 1.96163,-1.57934 3.98125,-3.50964 z m 81.636361,2.92472 c -0.21022,-0.32173 -0.64411,-0.58496 -0.96417,-0.58496 -0.32008,0 -0.58195,0.26323 -0.58195,0.58496 0,0.3217 0.43387,0.58492 0.96418,0.58492 0.53029,0 0.79217,-0.26322 0.58194,-0.58492 z M 12.210111,55.759905 c 2.15649,-0.9649 4.281883,-1.75457 4.723096,-1.75484 0.459897,-2.4e-4 -0.04602,-0.99887 -1.185797,-2.34022 -1.093423,-1.286884 -2.294855,-2.33978 -2.669869,-2.33978 -0.375014,0 -2.561293,0.855486 -4.8583834,1.90107 l -4.17653,1.90107 1.659151,2.19354 c 0.912522,1.20644 1.868,2.19353 2.123288,2.19353 0.25529,0 2.2285554,-0.78946 4.3850444,-1.75437 z m 4.681069,0.23108 c -0.205509,-0.19438 -0.738923,-0.21516 -1.185376,-0.0461 -0.49336,0.18672 -0.346807,0.32532 0.373663,0.3534 0.651948,0.0254 1.017221,-0.11293 0.811713,-0.30724 z m 84.89617,0.15155 c 0,-0.11093 -0.55662,-0.67825 -1.23693,-1.26056 -1.200551,-1.02761 -1.236911,-1.02167 -1.236911,0.20181 0,0.87059 0.38265,1.26056 1.236911,1.26056 0.68031,0 1.23693,-0.0908 1.23693,-0.20181 z m 29.22996,-4.91623 c 2.87378,-1.857161 4.70632,-3.533196 5.5273,-5.055234 l 1.22817,-2.276961 -4.10705,2.715464 c -4.3914,2.903445 -5.00664,3.125665 -5.49358,1.984269 -0.19438,-0.455597 -0.33034,-0.36339 -0.36078,0.244636 -0.0268,0.5367 -0.21423,1.457974 -0.41638,2.047296 -0.3057,0.89113 -0.25524,0.9238 0.29975,0.19408 0.75084,-0.987215 0.88437,-0.583977 0.29097,0.87861 -0.31276,0.77088 -0.50108,0.81243 -0.90193,0.19898 -0.38296,-0.58607 -0.68094,-0.61048 -1.22065,-0.1 -0.66696,0.63081 -0.33837,1.94715 0.48606,1.94715 0.20296,0 2.30362,-1.25024 4.66812,-2.77828 z M 83.852079,47.740886 c 0,-0.439241 -0.55527,0.0252 -3.11813,2.607778 l -2.75722,2.778491 2.93767,-2.607802 c 1.61573,-1.434279 2.93768,-2.684604 2.93768,-2.778467 z m 0.99321,-0.512572 c -0.18477,-0.455401 -0.69255,-0.823965 -1.12842,-0.81904 -0.55272,0.0066 -0.51183,0.177815 0.13517,0.567089 0.78933,0.474897 0.80389,0.746963 0.0976,1.824264 -0.69445,1.05928 -0.69445,1.346386 0,1.757341 0.60131,0.355847 0.8854,0.07874 1.03081,-1.005211 0.11048,-0.823051 0.0495,-1.869049 -0.13517,-2.324443 z m 8.58747,-6.185616 c -0.23255,-1.911762 -0.0965,-2.804618 0.45539,-2.990873 0.43281,-0.146079 0.64779,-0.402473 0.4777,-0.569892 -0.17007,-0.167418 -2.16007,1.584918 -4.4222,3.894079 -4.09473,4.179885 -4.11148,4.210892 -3.77965,6.995363 l 0.33331,2.79687 3.6335,-3.700069 c 3.55931,-3.624589 3.6267,-3.755727 3.30195,-6.425478 z m 40.233071,3.584958 c 2.53576,-1.618394 4.6105,-3.145095 4.6105,-3.392666 0,-0.247572 -0.34789,-0.784799 -0.77307,-1.193836 -0.42519,-0.409039 -0.49477,-0.662331 -0.15463,-0.56286 1.03243,0.301924 4.63843,-1.359184 4.63843,-2.136669 0,-1.287602 -2.5242,-3.810061 -3.81269,-3.810061 -0.68699,0 -1.95672,0.526448 -2.82157,1.169892 -1.91217,1.422605 -3.11513,1.476096 -4.60061,0.204594 -1.05997,-0.907266 -1.39069,-0.799903 -5.50288,1.786343 l -4.37514,2.751611 3.90803,4.017523 c 2.14942,2.209641 3.99018,4.038035 4.09058,4.063101 0.10048,0.02502 2.25728,-1.278578 4.79305,-2.896972 z m -7.75865,0.985909 c 0,-0.110927 -0.62619,-0.703268 -1.39153,-1.316121 l -1.39153,-1.114313 1.17816,1.316121 c 1.10717,1.236814 1.6049,1.582413 1.6049,1.114313 z M 92.184739,35.846063 c -0.20114,-0.307811 0.15524,-0.559659 0.792,-0.559659 0.63672,0 1.95759,-0.789673 2.93525,-1.75484 l 1.77756,-1.754823 -1.77756,-1.754823 c -0.97766,-0.965166 -2.06283,-1.754839 -2.41151,-1.754839 -0.34866,0 -1.82577,1.106304 -3.28243,2.458438 -2.61854,2.430635 -2.67389,2.449736 -4.89606,1.689744 l -2.24758,-0.768698 -3.66652,3.467828 -3.66652,3.467828 4.5192,2.675586 4.51919,2.675585 3.88535,-3.763833 c 2.13693,-2.070111 3.72077,-4.015683 3.51963,-4.323494 z m 50.659481,6.715046 c 0.20407,-0.502969 0.64014,-0.75719 0.96905,-0.564917 1.05409,0.616153 6.58544,-3.348046 8.06554,-5.780388 l 1.43123,-2.352039 -1.74273,1.07999 c -0.9585,0.594 -2.64163,1.581635 -3.7403,2.194735 -1.09866,0.613102 -2.34295,1.903374 -2.76508,2.867263 -0.42213,0.96389 -0.88114,1.645057 -1.02,1.513717 -0.13894,-0.131321 0.22975,-1.195311 0.8192,-2.364375 0.82853,-1.643298 0.90471,-2.283527 0.33573,-2.821664 -0.56898,-0.538122 -0.73595,-0.404081 -0.73595,0.590798 0,0.832238 -0.38239,1.29004 -1.08232,1.295843 -0.85598,0.0066 -0.90406,0.115737 -0.22998,0.519536 0.96104,0.575743 0.46744,1.676991 -1.28865,2.874956 -0.62178,0.424143 -0.97026,1.016401 -0.77443,1.316121 0.53826,0.823714 1.34317,0.65457 1.75869,-0.369576 z M 99.313509,35.544354 c 0,-0.501576 -0.28284,-0.746612 -0.62854,-0.544538 -0.34571,0.20209 -0.46844,0.612455 -0.27273,0.911942 0.53016,0.811344 0.90127,0.660058 0.90127,-0.367404 z m 8.658411,-8.382785 c 0,-1.614182 0.40785,-3.066849 1.07263,-3.820441 1.17895,-1.336466 -1.75505,0.964321 -5.86568,4.599767 -2.47694,2.190607 -2.62845,2.510372 -2.62845,5.547922 v 3.223325 l 3.71074,-3.473051 c 3.42998,-3.210226 3.71076,-3.670102 3.71076,-6.077522 z m -10.434891,7.686116 c 0.76928,-0.927743 0.7474,-0.948436 -0.23352,-0.220843 -1.03017,0.764154 -1.35779,1.244491 -0.84878,1.244491 0.12848,0 0.61547,-0.460638 1.0823,-1.023648 z m 53.267181,-1.418061 3.80159,-2.441727 -4.2315,-3.627554 -4.23151,-3.62757 -3.98158,2.361159 -3.98157,2.361159 3.91371,3.679502 c 2.15252,2.023734 4.13769,3.692386 4.41147,3.708138 0.27377,0.01493 2.20849,-1.070158 4.29939,-2.413107 z m -8.81715,0.466043 c 0,-0.121538 -0.48702,-0.582111 -1.08228,-1.023648 -0.98092,-0.727594 -1.00279,-0.706901 -0.23352,0.220843 0.80795,0.974369 1.3158,1.284236 1.3158,0.802805 z m -2.47383,-1.735788 c 0,-0.110927 -0.5566,-0.678248 -1.2369,-1.260558 -1.06836,-0.914446 -1.23691,-0.932634 -1.23691,-0.133477 0,0.508856 0.48702,1.045568 1.08229,1.192691 0.59526,0.147074 1.15188,0.298045 1.23692,0.335368 0.085,0.03731 0.1546,-0.02304 0.1546,-0.133974 z m -36.19567,-6.62239 c 2.5751,-2.17842 3.79627,-3.614804 3.56267,-4.190547 -0.23107,-0.56951 -0.10224,-0.728041 0.36813,-0.453078 1.40015,0.818441 2.08494,-0.30131 0.92538,-1.51317 -1.984,-2.073494 -3.267,-2.432043 -4.60488,-1.286889 -1.06551,0.912024 -1.46972,0.944324 -3.42929,0.274134 l -2.221401,-0.759727 -3.37216,3.189415 -3.37215,3.189416 3.9152,2.383576 c 2.15338,1.310966 4.00415,2.405597 4.11283,2.432491 0.10873,0.02686 1.960731,-1.442617 4.115671,-3.265621 z m 7.74664,-1.197883 c 0,-1.512192 -0.0514,-1.539004 -1.0823,-0.563789 -0.94657,0.89551 -0.96596,1.093505 -0.1546,1.578749 1.26212,0.754853 1.2369,0.775546 1.2369,-1.01496 z m 8.03994,-8.138662 v -2.809942 l -3.40151,3.177229 c -3.23452,3.021235 -3.40091,3.321783 -3.38905,6.121909 l 0.0131,2.944696 3.38904,-3.311984 c 3.15012,-3.078488 3.38904,-3.51006 3.38904,-6.121908 z m -3.79403,-1.600237 3.27597,-3.137418 -4.09146,-2.1270668 c -2.2503,-1.169894 -4.30106,-2.127084 -4.55724,-2.127084 -0.25621,0 -1.8466,1.325903 -3.53422,2.9464358 -3.35889,3.225364 -3.39934,3.025363 1.06295,5.25704 1.25248,0.626384 2.45171,1.405875 2.66494,1.73219 0.74905,1.146299 1.93294,0.564718 5.17906,-2.544097 z m -11.04895,1.124626 c 0,-0.141934 -0.27829,-0.420628 -0.61845,-0.619468 -0.34015,-0.198823 -0.61846,-0.08274 -0.61846,0.257952 0,0.340708 0.27831,0.619468 0.61846,0.619468 0.34016,0 0.61845,-0.116068 0.61845,-0.257952 z"
       id="path4529"
       inkscape:connector-curvature="0" />
  </g>
</svg>
